<?xml version="1.0" encoding="iso-8859-1"?>
<!-- Uploaded to: SVG Repo, www.svgrepo.com, Generator: SVG Repo Mixer Tools -->
<svg fill="#0093dd" height="800px" width="800px" version="1.1" id="Layer_1" xmlns="http://www.w3.org/2000/svg" xmlns:xlink="http://www.w3.org/1999/xlink" 
	 viewBox="0 0 503.607 503.607" xml:space="preserve">
<g>
	<g>
		<path d="M486.82,75.541h-33.574c-9.258,0-16.787,7.529-16.787,16.787v8.393H318.951V67.148h8.393
			c9.258,0,16.787-7.529,16.787-16.787V16.787C344.131,7.529,336.602,0,327.344,0H176.262c-9.258,0-16.787,7.529-16.787,16.787
			v33.574c0,9.258,7.529,16.787,16.787,16.787h8.393V268.59H67.148v-8.393c0-9.258-7.529-16.787-16.787-16.787H16.787
			C7.529,243.41,0,250.939,0,260.197v151.082c0,9.258,7.529,16.787,16.787,16.787h33.574c9.258,0,16.787-7.529,16.787-16.787v-8.393
			h117.508v33.574h-8.393c-9.258,0-16.787,7.529-16.787,16.787v33.574c0,9.258,7.529,16.787,16.787,16.787h151.082
			c9.258,0,16.787-7.529,16.787-16.787v-33.574c0-9.258-7.529-16.787-16.787-16.787h-8.393V235.016h117.508v8.393
			c0,9.258,7.529,16.787,16.787,16.787h33.574c9.258,0,16.787-7.529,16.787-16.787V92.328
			C503.607,83.07,496.078,75.541,486.82,75.541z M50.377,411.279H16.787V260.197h33.574v16.779v0.008v117.508
			c0,0.025,0.017,0.05,0.017,0.076V411.279z M176.262,50.377V16.787h151.082v33.574h-16.779h-0.008H193.049
			c-0.025,0-0.05,0.017-0.076,0.017H176.262z M276.984,360.918c-4.642,0-8.393-3.752-8.393-8.393V268.59
			c0-4.642,3.752-8.393,8.393-8.393c4.642,0,8.393,3.752,8.393,8.393v83.934C285.377,357.166,281.625,360.918,276.984,360.918z
			 M285.377,402.885v33.574H268.59v-33.574c0-4.642,3.752-8.393,8.393-8.393C281.625,394.492,285.377,398.244,285.377,402.885z
			 M327.344,453.246v33.574l-151.082,0.017v-33.591h16.787h83.934h33.574H327.344z M344.131,201.443h-58.754v25.18
			c0,4.642-3.752,8.393-8.393,8.393c-4.642,0-8.393-3.752-8.393-8.393v-33.574c0-4.642,3.752-8.393,8.393-8.393h67.148
			c4.642,0,8.393,3.752,8.393,8.393C352.525,197.691,348.773,201.443,344.131,201.443z M377.705,201.443
			c-4.633,0-8.393-3.76-8.393-8.393s3.76-8.393,8.393-8.393s8.393,3.76,8.393,8.393S382.338,201.443,377.705,201.443z
			 M436.459,201.443h-25.18c-4.642,0-8.393-3.752-8.393-8.393c0-4.642,3.752-8.393,8.393-8.393h25.18V201.443z M486.82,243.41
			h-33.574v-16.779v-0.008v-33.574c0,0.008-0.008,0.017-0.008,0.025v-0.05c0,0.008,0.008,0.017,0.008,0.025v-83.934
			c0-0.025-0.017-0.05-0.017-0.076V92.328h0.017h33.574V243.41z"/>
	</g>
</g>
</svg>